<?xml version="1.0" standalone="no"?>
<!DOCTYPE svg PUBLIC "-//W3C//DTD SVG 20010904//EN"
 "http://www.w3.org/TR/2001/REC-SVG-20010904/DTD/svg10.dtd">
<svg version="1.0" xmlns="http://www.w3.org/2000/svg"
 width="1920.000000pt" height="1920.000000pt" viewBox="0 0 1920.000000 1920.000000"
 preserveAspectRatio="xMidYMid meet">
<metadata>
Created by potrace 1.14, written by Peter Selinger 2001-2017
</metadata>
<g transform="translate(0.000000,1920.000000) scale(0.100000,-0.100000)"
fill="#000000" stroke="none">
<path d="M3762 14918 c-7 -7 -12 -8 -12 -4 0 5 -11 1 -25 -8 -14 -9 -25 -14
-25 -11 0 3 -11 -5 -24 -17 -13 -13 -21 -26 -19 -30 2 -5 0 -8 -5 -8 -5 0 -14
-12 -20 -26 -7 -15 -17 -22 -24 -18 -8 5 -9 2 -5 -9 3 -10 2 -17 -4 -17 -6 0
-7 -5 -4 -10 4 -6 12 -7 18 -3 7 4 5 -1 -3 -12 -17 -21 -24 -128 -7 -118 6 4
7 1 1 -8 -13 -21 -13 -301 0 -318 7 -10 8 -13 0 -8 -7 4 -10 -13 -11 -48 0
-37 3 -52 11 -48 8 5 8 3 0 -8 -13 -17 -13 -138 0 -158 6 -10 6 -12 -2 -7 -7
4 -12 2 -12 -3 0 -6 5 -11 12 -11 6 0 8 -3 5 -6 -9 -9 23 -64 56 -95 15 -15
27 -32 27 -39 0 -7 6 -10 14 -7 8 3 20 0 26 -8 6 -8 18 -11 26 -8 8 3 14 1 14
-4 0 -5 6 -11 13 -12 6 -1 323 -3 702 -5 477 -1 694 1 704 8 9 7 13 7 9 1 -4
-7 80 -10 252 -11 175 0 257 4 252 11 -4 6 -1 6 9 -1 17 -13 417 -13 438 0 8
6 12 5 8 0 -3 -6 98 -9 253 -10 175 0 257 4 252 11 -4 6 -1 6 9 -1 17 -13 417
-13 438 0 8 6 12 5 8 0 -3 -6 98 -9 253 -10 175 0 257 4 252 11 -4 6 -1 6 9
-1 17 -13 417 -13 438 0 8 6 12 5 8 0 -3 -6 98 -9 253 -10 175 0 257 4 252 11
-4 6 -1 6 9 -1 17 -13 417 -13 438 0 8 6 12 5 8 0 -3 -6 98 -9 253 -10 175 0
257 4 252 11 -4 6 -1 6 9 -1 17 -13 417 -13 438 0 8 6 12 5 8 0 -3 -6 98 -9
253 -10 175 0 257 4 252 11 -4 6 -1 6 9 -1 17 -13 417 -13 438 0 8 6 12 5 8 0
-3 -6 98 -9 253 -10 175 0 257 4 252 11 -4 6 -1 6 9 -1 17 -13 417 -13 438 0
8 6 12 5 8 0 -3 -6 98 -9 253 -10 175 0 257 4 252 11 -4 6 -1 6 9 -1 17 -13
417 -13 438 0 8 6 12 5 8 0 -3 -6 98 -9 253 -10 175 0 257 4 252 11 -4 6 -1 6
9 -1 17 -13 417 -13 438 0 8 6 12 5 8 0 -3 -6 98 -9 253 -10 175 0 257 4 252
11 -4 6 -1 6 9 -1 17 -13 417 -13 438 0 9 6 12 5 8 0 -3 -6 73 -10 199 -9 112
0 204 3 204 8 0 4 7 7 16 7 8 0 12 -5 9 -11 -4 -6 2 -5 14 3 12 7 21 18 21 25
0 7 5 13 11 13 6 0 29 18 50 40 22 22 36 40 33 40 -4 0 -1 7 6 15 7 8 9 15 5
15 -4 0 -3 6 2 13 5 6 9 51 9 100 -1 52 3 87 9 87 6 0 6 3 0 8 -12 8 -14 210
-2 230 5 6 4 12 -1 12 -5 0 -8 25 -7 55 1 31 -4 67 -11 81 -7 13 -13 26 -12
27 4 10 -20 58 -43 85 -16 18 -29 31 -29 29 0 -2 -21 16 -46 40 -25 23 -52 43
-60 43 -8 0 -14 3 -14 8 0 4 -15 14 -32 21 -18 8 -39 21 -46 28 -8 7 -18 11
-23 8 -5 -4 -9 -1 -9 4 0 6 -3 10 -7 9 -5 -1 -21 4 -38 11 -16 7 -40 13 -52
13 -13 0 -23 4 -23 8 0 8 -21 11 -98 13 -23 1 -42 5 -42 9 0 5 -2479 8 -5508
8 -4275 0 -5511 -3 -5520 -12z"/>
<path d="M811 13528 c-12 -4 -21 -5 -21 -1 0 3 -7 0 -15 -7 -12 -10 -18 -10
-32 1 -11 9 -14 10 -9 2 5 -9 -1 -12 -23 -9 -17 2 -33 1 -37 -3 -3 -3 -9 -6
-12 -7 -31 -4 -61 -18 -55 -27 4 -6 0 -8 -8 -5 -9 3 -26 -3 -40 -13 -13 -10
-30 -19 -36 -19 -7 0 -13 -5 -13 -11 0 -5 -4 -7 -10 -4 -5 3 -10 1 -10 -4 0
-6 -10 -11 -22 -11 -12 0 -19 -3 -15 -6 6 -6 -29 -49 -41 -49 -8 0 -53 -44
-50 -47 7 -7 -30 -47 -37 -40 -5 4 -5 2 -1 -5 4 -7 -1 -21 -11 -31 -26 -26
-54 -78 -46 -85 3 -4 -1 -9 -10 -13 -9 -3 -14 -14 -12 -25 2 -10 -1 -19 -6
-19 -6 0 -7 -4 -4 -10 3 -5 1 -10 -4 -10 -6 0 -11 -13 -11 -30 0 -16 -3 -30
-7 -30 -5 0 -9 -17 -10 -38 -2 -56 -6 -82 -14 -82 -4 0 -6 -16 -5 -35 2 -19
-1 -35 -5 -35 -5 0 -6 -7 -3 -15 4 -9 0 -15 -7 -15 -11 0 -11 -3 1 -10 8 -5
10 -10 5 -10 -7 0 -11 -66 -10 -195 0 -124 -4 -195 -10 -195 -7 0 -7 -3 0 -8
14 -10 14 -464 0 -474 -7 -5 -7 -8 0 -8 6 0 10 -85 10 -235 0 -150 -4 -235
-10 -235 -7 0 -7 -3 0 -8 14 -10 14 -464 0 -474 -7 -5 -7 -8 0 -8 6 0 10 -85
10 -235 0 -150 -4 -235 -10 -235 -7 0 -7 -3 0 -8 14 -10 14 -464 0 -474 -7 -5
-7 -8 0 -8 6 0 10 -85 10 -235 0 -150 -4 -235 -10 -235 -7 0 -7 -3 0 -8 14
-10 14 -464 0 -474 -7 -5 -7 -8 0 -8 6 0 10 -85 10 -235 0 -150 -4 -235 -10
-235 -7 0 -7 -3 0 -8 14 -10 14 -464 0 -474 -7 -5 -7 -8 0 -8 6 0 10 -85 10
-235 0 -150 -4 -235 -10 -235 -7 0 -7 -3 0 -8 14 -10 14 -464 0 -474 -7 -5 -7
-8 0 -8 6 0 10 -85 10 -235 0 -150 -4 -235 -10 -235 -7 0 -7 -3 0 -8 14 -10
14 -464 0 -474 -7 -5 -7 -8 0 -8 13 0 14 -422 1 -432 -6 -4 -6 -11 0 -20 8
-11 11 -101 4 -118 -1 -3 -1 -9 0 -15 7 -29 5 -105 -3 -105 -5 0 -3 -8 4 -17
12 -14 12 -15 1 -9 -11 7 -12 4 -5 -10 5 -11 9 -76 8 -146 0 -71 3 -128 8
-128 4 0 5 -5 2 -10 -4 -6 -1 -18 7 -27 9 -12 9 -15 1 -9 -7 4 -13 2 -13 -3 0
-6 4 -11 9 -11 5 0 8 -13 7 -30 -1 -16 3 -30 9 -30 6 0 12 -11 13 -26 1 -14 6
-33 11 -42 4 -9 7 -25 6 -34 -2 -11 3 -18 12 -18 13 0 13 -2 2 -17 -10 -11
-10 -14 -2 -9 8 4 13 1 13 -9 0 -9 5 -13 10 -10 6 3 10 -2 10 -12 0 -10 8 -30
17 -43 10 -14 18 -31 19 -38 2 -7 11 -21 22 -30 10 -9 22 -29 26 -44 3 -16 10
-27 15 -25 11 3 49 -40 56 -64 4 -11 10 -17 14 -14 4 2 22 -11 39 -31 17 -19
32 -34 34 -32 2 2 14 -7 28 -20 13 -12 28 -22 32 -22 5 0 6 -4 3 -10 -6 -10 7
-14 34 -11 7 2 11 -1 8 -6 -3 -5 20 -22 51 -38 31 -17 60 -35 64 -42 5 -6 17
-9 28 -6 12 3 20 0 20 -6 0 -7 4 -9 10 -6 5 3 20 0 32 -7 13 -7 26 -13 31 -14
4 -1 10 -3 15 -4 4 -2 12 -4 17 -4 6 -1 19 -7 30 -12 11 -6 36 -10 55 -9 19 1
40 -1 45 -5 6 -4 119 -6 253 -6 156 1 242 -2 242 -9 0 -7 3 -7 8 0 8 12 192
14 192 2 0 -4 6 -5 12 0 18 11 148 11 148 0 0 -4 6 -5 13 0 16 10 787 10 787
0 0 -5 6 -5 13 0 17 11 147 11 147 0 0 -4 6 -5 13 0 19 12 587 10 587 -2 0 -7
3 -6 8 0 8 12 192 14 192 2 0 -4 6 -5 12 0 18 11 148 11 148 0 0 -4 6 -5 12 0
17 10 788 10 788 0 0 -5 6 -5 13 0 17 11 147 11 147 0 0 -4 6 -5 13 0 19 12
587 10 587 -2 0 -7 3 -6 8 0 8 12 192 14 192 2 0 -4 6 -5 13 0 17 11 147 11
147 0 0 -4 6 -5 12 0 17 10 788 10 788 0 0 -5 6 -5 13 0 17 11 147 11 147 0 0
-4 6 -5 12 0 20 12 588 10 588 -2 0 -7 3 -6 8 0 8 12 192 14 192 2 0 -4 6 -5
13 0 17 11 147 11 147 0 0 -4 6 -5 13 0 16 10 787 10 787 0 0 -5 6 -5 13 0 17
11 147 11 147 0 0 -4 6 -5 13 0 19 12 587 10 587 -2 0 -7 3 -6 8 0 8 12 192
14 192 2 0 -4 6 -5 13 0 17 11 147 11 147 0 0 -4 6 -5 12 0 17 10 1428 10
1428 0 0 -5 6 -5 13 0 17 11 147 11 147 0 0 -4 6 -5 13 0 19 12 587 10 587 -2
0 -7 3 -6 8 0 8 12 192 14 192 2 0 -4 6 -5 13 0 17 11 147 11 147 0 0 -4 6 -5
13 0 16 10 787 10 787 0 0 -5 6 -5 13 0 17 11 147 11 147 0 0 -4 6 -5 13 0 19
12 587 10 587 -2 0 -7 3 -6 8 0 8 12 192 14 192 2 0 -4 6 -5 12 0 18 11 148
11 148 0 0 -4 6 -5 13 0 16 10 787 10 787 0 0 -5 6 -5 13 0 17 11 147 11 147
0 0 -4 6 -5 12 0 20 12 588 10 588 -2 0 -7 3 -6 8 0 8 12 192 14 192 2 0 -4 6
-5 13 0 17 11 147 11 147 0 0 -4 6 -5 13 0 16 10 787 10 787 0 0 -5 6 -5 13 0
17 11 147 11 147 0 0 -4 6 -5 13 0 19 12 587 10 587 -2 0 -7 3 -6 8 0 8 12
192 14 192 2 0 -4 6 -5 13 0 17 11 147 11 147 0 0 -6 5 -6 13 0 6 5 78 9 160
8 81 -1 147 1 147 4 0 4 22 6 49 6 30 0 47 -4 44 -10 -2 -5 1 -3 9 6 7 9 19
14 26 12 6 -3 12 1 12 8 0 7 3 10 6 6 3 -3 25 3 49 13 24 10 46 16 49 13 3 -4
6 -1 6 5 0 6 9 9 20 7 12 -2 24 4 30 15 6 11 16 17 24 14 7 -3 16 2 20 11 3 9
10 13 16 10 5 -3 10 -1 10 5 0 6 5 8 11 5 6 -4 13 2 16 13 3 12 11 18 18 15 8
-2 30 11 49 30 19 19 37 32 40 29 3 -3 6 2 6 11 0 9 4 17 9 17 17 0 77 66 73
79 -3 8 0 11 5 8 5 -3 17 7 27 24 9 16 22 29 27 29 6 0 7 4 4 10 -3 5 -1 10 5
10 5 0 18 17 28 38 9 20 25 46 35 56 18 21 23 41 7 31 -15 -9 -12 0 9 24 10
12 28 54 41 94 12 39 25 79 30 87 4 9 7 34 7 56 0 22 2 45 6 51 9 15 8 4651
-2 4657 -4 3 -6 26 -4 51 2 30 0 44 -7 40 -5 -3 -10 -3 -11 2 -2 20 -8 46 -15
61 -4 9 -8 19 -9 22 -7 30 -39 78 -49 73 -6 -4 -5 1 3 10 11 15 11 17 -2 17
-8 0 -17 9 -20 21 -3 12 -10 18 -17 14 -6 -3 -10 -3 -9 2 4 22 -2 43 -11 38
-5 -3 -10 -2 -10 3 0 11 -96 112 -106 112 -12 0 -33 28 -26 35 4 4 2 5 -3 4
-11 -4 -57 19 -66 33 -3 5 -12 10 -20 11 -8 2 -20 6 -26 10 -7 5 -18 5 -23 2
-5 -3 -10 0 -10 7 0 12 -19 17 -67 21 -7 0 -13 3 -13 6 0 3 -10 7 -22 8 -47 3
-83 9 -94 16 -6 3 -14 3 -18 -1 -13 -12 -86 -11 -86 2 0 7 -4 6 -9 -2 -4 -8
-12 -14 -16 -14 -4 0 -12 6 -16 14 -5 7 -9 8 -9 2 0 -14 -63 -14 -72 0 -6 8
-8 8 -8 0 0 -13 -89 -13 -109 0 -10 7 -12 6 -6 -4 6 -10 4 -12 -7 -7 -9 3 -21
0 -28 -6 -10 -9 -11 -9 -5 2 6 11 4 13 -8 8 -10 -4 -17 -1 -17 6 0 7 -3 8 -8
2 -10 -14 -104 -16 -95 -2 4 6 1 7 -8 1 -21 -13 -80 -14 -72 0 4 6 -1 5 -10
-3 -14 -11 -17 -11 -17 0 0 9 -3 10 -8 4 -10 -14 -65 -15 -74 -1 -5 7 -8 7 -8
1 0 -15 -100 -15 -100 -1 0 6 -4 4 -10 -4 -5 -8 -12 -11 -16 -7 -4 4 -14 1
-22 -6 -13 -10 -14 -9 -8 1 6 9 1 11 -18 8 -16 -3 -26 0 -26 7 0 8 -3 8 -8 2
-10 -14 -84 -16 -75 -2 4 6 1 7 -8 1 -22 -14 -80 -15 -72 -1 4 7 -1 6 -10 -2
-14 -11 -17 -11 -17 0 0 9 -3 10 -8 4 -10 -14 -65 -15 -74 -1 -5 7 -8 7 -8 0
0 -13 -89 -13 -109 0 -10 7 -12 6 -6 -4 6 -10 4 -12 -7 -7 -9 3 -21 0 -28 -6
-10 -9 -11 -9 -5 2 6 11 4 13 -8 8 -10 -4 -17 -1 -17 6 0 7 -3 8 -8 2 -10 -14
-104 -16 -95 -2 4 6 1 7 -8 1 -21 -13 -80 -14 -72 0 4 6 -1 5 -10 -3 -14 -11
-17 -11 -17 0 0 9 -3 10 -8 4 -10 -14 -65 -15 -74 -1 -6 8 -8 8 -8 0 0 -6 -10
-10 -22 -10 -13 1 -31 -2 -42 -7 -13 -6 -16 -6 -11 2 4 8 -2 10 -19 7 -16 -3
-26 0 -26 7 0 9 -2 9 -8 1 -9 -14 -43 -14 -61 0 -12 9 -13 8 -6 -3 6 -11 4
-13 -7 -8 -9 3 -21 0 -28 -6 -10 -9 -11 -9 -6 1 6 9 1 11 -18 8 -16 -3 -26 0
-26 7 0 8 -3 9 -8 1 -10 -14 -84 -15 -75 0 3 6 -4 2 -17 -9 -13 -11 -20 -14
-16 -7 6 9 1 11 -18 8 -16 -3 -26 0 -26 7 0 9 -2 9 -8 1 -9 -14 -43 -14 -61 0
-12 9 -13 8 -6 -3 6 -11 4 -13 -7 -8 -9 3 -21 0 -28 -6 -10 -9 -11 -9 -6 1 6
9 1 11 -18 8 -16 -3 -26 0 -26 7 0 8 -3 9 -8 1 -10 -14 -84 -15 -75 0 3 6 -4
2 -17 -9 -13 -11 -20 -14 -16 -7 6 9 1 11 -18 8 -16 -3 -26 0 -26 7 0 9 -2 9
-8 1 -9 -14 -43 -14 -61 0 -12 9 -13 8 -6 -3 6 -11 4 -13 -7 -8 -9 3 -21 0
-28 -6 -10 -9 -11 -9 -6 1 6 9 1 11 -18 8 -16 -3 -26 0 -26 7 0 8 -3 9 -8 1
-10 -14 -84 -15 -75 0 3 6 -4 2 -17 -9 -13 -11 -20 -14 -16 -7 6 9 1 11 -18 8
-16 -3 -26 0 -26 7 0 9 -2 9 -8 1 -9 -14 -43 -14 -61 0 -12 9 -13 8 -6 -3 6
-11 4 -13 -7 -8 -9 3 -21 0 -28 -6 -10 -9 -11 -9 -6 1 6 9 1 11 -18 8 -16 -3
-26 0 -26 7 0 8 -3 9 -8 1 -9 -14 -84 -15 -75 -1 4 6 1 7 -8 1 -23 -14 -49
-15 -49 -1 0 8 -3 7 -10 -3 -5 -8 -12 -11 -16 -7 -4 4 -14 1 -22 -6 -13 -10
-14 -9 -8 1 6 9 1 11 -18 8 -16 -3 -26 0 -26 7 0 8 -3 8 -8 2 -10 -14 -84 -16
-75 -2 4 6 1 7 -8 1 -22 -14 -80 -15 -72 -1 4 7 -1 6 -10 -2 -14 -11 -17 -11
-17 0 0 9 -3 10 -8 4 -10 -14 -65 -15 -74 -1 -5 7 -8 7 -8 0 0 -13 -89 -13
-109 0 -10 7 -12 6 -6 -4 6 -10 4 -12 -7 -7 -9 3 -21 0 -28 -6 -10 -9 -11 -9
-5 2 6 11 4 13 -8 8 -10 -4 -17 -1 -17 6 0 7 -3 8 -8 2 -10 -14 -104 -16 -95
-2 4 6 1 7 -8 1 -21 -13 -80 -14 -72 0 4 6 -1 5 -10 -3 -14 -11 -17 -11 -17 0
0 9 -3 10 -8 4 -10 -14 -65 -15 -74 -1 -5 7 -8 7 -8 1 0 -15 -100 -15 -100 -1
0 6 -4 4 -10 -4 -5 -8 -12 -11 -16 -7 -4 4 -14 1 -22 -6 -13 -10 -14 -9 -8 1
6 9 1 11 -18 8 -16 -3 -26 0 -26 7 0 8 -3 8 -8 2 -10 -14 -84 -16 -75 -2 4 6
1 7 -8 1 -21 -13 -81 -15 -73 -2 5 7 2 8 -7 2 -23 -14 -49 -15 -49 -1 0 8 -3
7 -10 -3 -5 -8 -12 -11 -16 -7 -4 4 -14 1 -22 -6 -13 -10 -14 -9 -8 1 6 9 1
11 -18 8 -16 -3 -26 0 -26 7 0 8 -3 8 -8 2 -10 -14 -84 -16 -75 -2 4 6 1 7 -8
1 -22 -14 -80 -15 -72 -1 4 7 -1 6 -10 -2 -14 -11 -17 -11 -17 0 0 9 -3 10 -8
4 -10 -14 -65 -15 -74 -1 -5 7 -8 7 -8 0 0 -13 -89 -13 -109 0 -10 7 -12 6 -6
-4 6 -10 4 -12 -7 -7 -9 3 -21 0 -28 -6 -10 -9 -11 -9 -5 2 6 11 4 13 -8 8
-10 -4 -17 -1 -17 6 0 7 -3 8 -8 2 -10 -14 -104 -16 -95 -2 4 6 1 7 -8 1 -21
-13 -80 -14 -72 0 4 6 -1 5 -10 -3 -14 -11 -17 -11 -17 0 0 9 -3 10 -8 4 -10
-14 -65 -15 -74 -1 -5 7 -8 7 -8 1 0 -15 -100 -15 -100 -1 0 6 -4 4 -10 -4 -5
-8 -12 -11 -16 -7 -4 4 -14 1 -22 -6 -13 -10 -14 -9 -8 1 6 9 1 11 -18 8 -16
-3 -26 0 -26 7 0 8 -3 8 -8 2 -10 -14 -84 -16 -75 -2 4 6 1 7 -8 1 -22 -14
-80 -14 -72 -1 3 7 -4 3 -17 -8 -13 -11 -20 -14 -16 -7 6 9 1 11 -18 8 -16 -3
-26 0 -26 7 0 9 -2 9 -8 1 -9 -14 -43 -14 -61 0 -12 9 -13 8 -6 -3 6 -11 4
-13 -7 -8 -9 3 -21 0 -28 -6 -10 -9 -11 -9 -6 1 6 9 1 11 -18 8 -16 -3 -26 0
-26 7 0 8 -3 9 -8 1 -10 -14 -84 -15 -75 0 3 6 -4 2 -17 -9 -13 -11 -20 -14
-16 -7 6 9 1 11 -18 8 -16 -3 -26 0 -26 7 0 9 -2 9 -8 1 -9 -14 -43 -14 -61 0
-12 9 -13 8 -6 -3 6 -11 4 -13 -7 -8 -9 3 -21 0 -28 -6 -10 -9 -11 -9 -6 1 6
9 1 11 -18 8 -16 -3 -26 0 -26 7 0 8 -3 9 -8 1 -10 -14 -84 -15 -75 0 3 6 -4
2 -17 -9 -13 -11 -20 -14 -16 -7 6 9 1 11 -18 8 -16 -3 -26 0 -26 7 0 9 -2 9
-8 1 -9 -14 -43 -14 -61 0 -12 9 -13 8 -6 -3 6 -11 4 -13 -7 -8 -9 3 -21 0
-28 -6 -10 -9 -11 -9 -6 1 6 9 1 11 -18 8 -16 -3 -26 0 -26 7 0 8 -3 9 -8 1
-10 -14 -84 -15 -75 0 3 6 -4 2 -17 -9 -13 -11 -20 -14 -16 -7 6 9 1 11 -18 8
-16 -3 -26 0 -26 7 0 9 -2 9 -8 1 -9 -14 -43 -14 -61 0 -12 9 -13 8 -6 -3 6
-11 4 -13 -7 -8 -9 3 -21 0 -28 -6 -10 -9 -11 -9 -6 1 6 9 1 11 -18 8 -16 -3
-26 0 -26 7 0 8 -3 9 -8 1 -10 -14 -84 -15 -75 0 4 6 -1 5 -10 -3 -14 -11 -17
-11 -17 0 0 9 -3 10 -8 4 -10 -14 -65 -15 -74 -1 -5 7 -8 7 -8 0 0 -13 -89
-13 -109 0 -10 7 -12 6 -6 -4 6 -10 4 -12 -7 -7 -9 3 -21 0 -28 -6 -10 -9 -11
-9 -5 2 6 11 4 13 -8 8 -10 -4 -17 -1 -17 6 0 7 -3 8 -8 2 -10 -14 -104 -16
-95 -2 4 6 1 7 -8 1 -21 -13 -80 -14 -72 0 4 6 -1 5 -10 -3 -14 -11 -17 -11
-17 0 0 9 -3 10 -8 4 -10 -14 -65 -15 -74 -1 -5 7 -8 7 -8 1 0 -15 -100 -15
-100 -1 0 6 -4 4 -10 -4 -5 -8 -12 -11 -16 -7 -4 4 -14 1 -22 -6 -13 -10 -14
-9 -8 1 6 9 1 11 -18 8 -16 -3 -26 0 -26 7 0 8 -3 8 -8 2 -10 -14 -84 -16 -75
-2 4 6 1 7 -8 1 -22 -14 -80 -15 -72 -1 4 8 1 7 -9 -1 -11 -9 -18 -10 -23 -2
-3 6 -12 7 -18 3 -18 -12 -77 -11 -77 1 0 8 -2 8 -8 0 -9 -14 -82 -14 -82 0 0
6 -4 4 -10 -4 -5 -8 -12 -11 -16 -7 -4 4 -14 1 -22 -6 -13 -10 -14 -9 -7 2 6
11 4 13 -8 8 -10 -4 -17 -1 -17 6 0 8 -3 8 -8 2 -13 -18 -35 -11 -39 13 -2 16
1 21 9 16 7 -5 8 -3 2 7 -13 21 -15 81 -2 73 7 -5 8 -2 2 7 -13 20 -13 99 0
99 8 0 7 3 0 8 -14 9 -13 64 1 74 6 5 6 8 -1 8 -15 0 -14 70 1 70 6 0 6 3 -1
8 -14 9 -13 64 1 74 7 5 6 8 -1 8 -12 0 -13 49 0 69 6 9 5 12 -1 8 -14 -9 -13
66 1 75 7 5 8 8 0 8 -12 0 -13 49 0 69 6 9 5 12 -1 8 -6 -4 -10 8 -10 28 0 19
3 36 6 36 3 1 83 3 178 4 124 1 171 -1 166 -9 -5 -8 -3 -8 8 0 19 15 161 16
152 2 -4 -7 -1 -8 8 -2 21 13 800 13 792 0 -5 -7 -2 -7 8 0 19 15 161 16 152
2 -4 -7 -1 -8 8 -2 21 13 800 13 792 0 -5 -8 -2 -7 8 0 19 15 161 16 152 2 -4
-7 -1 -8 8 -2 21 13 2720 13 2711 0 -4 -7 -1 -7 9 0 19 15 161 16 152 2 -4 -7
-1 -8 8 -2 21 13 800 13 792 0 -5 -8 -2 -7 8 0 19 15 161 16 152 2 -4 -7 -1
-8 8 -2 21 13 800 13 792 0 -5 -7 -2 -7 8 0 19 15 161 16 152 2 -4 -7 -1 -8 8
-2 21 13 800 13 792 0 -5 -8 -2 -7 8 0 20 15 161 16 152 1 -5 -9 -3 -9 8 -1 9
8 101 11 287 10 172 -1 277 3 282 9 10 14 7 156 -4 174 -6 9 -5 12 1 8 13 -8
12 211 -1 232 -6 9 -5 12 1 8 15 -9 14 293 -1 312 -8 11 -8 13 0 8 16 -9 16
292 0 312 -8 11 -8 13 0 8 8 -5 11 43 11 168 0 96 -3 175 -7 175 -4 0 -6 10
-5 23 1 12 -5 31 -14 41 -9 11 -10 16 -3 12 15 -9 17 30 2 39 -6 4 -8 10 -5
15 3 5 1 11 -4 14 -5 4 -8 17 -6 31 1 14 -2 25 -6 25 -5 0 -9 8 -9 19 0 10 -6
24 -14 31 -8 6 -12 18 -9 26 3 8 -1 22 -10 32 -8 9 -13 25 -12 35 2 9 -1 15
-6 11 -5 -3 -9 1 -9 9 0 8 -7 20 -15 27 -9 7 -14 19 -11 27 3 8 1 11 -4 8 -6
-3 -10 0 -10 8 0 8 -9 22 -20 32 -11 10 -20 24 -20 32 0 7 -7 16 -15 19 -8 4
-15 11 -15 16 0 6 -22 32 -50 59 -27 27 -50 53 -50 59 0 5 -6 10 -14 10 -8 0
-17 9 -21 19 -3 10 -17 22 -30 25 -14 4 -25 13 -25 21 0 8 -6 15 -12 15 -7 0
-31 14 -52 30 -21 16 -43 27 -47 24 -5 -3 -9 -1 -9 5 0 13 -55 42 -64 34 -3
-4 -12 1 -19 10 -6 10 -26 18 -42 20 -17 1 -36 7 -43 14 -7 6 -22 10 -34 8
-12 -3 -27 0 -33 5 -6 5 -28 8 -48 7 -21 -2 -37 1 -37 7 0 13 -10331 14
-10370 1 -14 -4 -36 -9 -50 -11 -14 -1 -27 -3 -30 -4 -3 -1 -9 -3 -15 -4 -41
-8 -105 -32 -105 -39 0 -4 -5 -5 -10 -2 -6 3 -13 -1 -16 -9 -3 -9 -10 -13 -16
-10 -5 3 -17 -2 -26 -13 -9 -10 -22 -19 -29 -20 -6 -1 -24 -14 -39 -28 -15
-14 -33 -25 -41 -25 -8 0 -12 -4 -9 -9 7 -11 -18 -33 -27 -24 -4 3 -7 -1 -7
-9 0 -9 -7 -19 -16 -22 -8 -3 -12 -10 -9 -16 3 -5 2 -10 -4 -10 -5 0 -13 5
-16 10 -4 6 -11 7 -17 4 -8 -5 -9 -1 -5 10 4 10 -1 24 -12 35 -11 11 -17 22
-13 25 3 3 -5 6 -17 6 -12 0 -19 4 -16 10 3 6 1 10 -5 10 -7 0 -10 7 -6 15 3
8 0 15 -6 15 -6 0 -25 15 -42 33 -32 35 -89 70 -100 62 -3 -3 -4 -2 -2 1 9 12
-19 31 -38 26 -12 -3 -17 -1 -13 5 4 6 0 14 -9 17 -9 3 -12 2 -9 -4 7 -12 -37
-6 -57 7 -16 10 -6109 12 -6137 1z m2092 -2362 c-5 -8 -3 -8 8 0 19 15 161 16
152 2 -4 -7 -1 -8 8 -2 21 13 800 13 792 0 -5 -7 -2 -7 8 0 19 15 161 16 152
2 -4 -7 -1 -8 8 -2 21 13 800 13 792 0 -5 -8 -2 -7 8 0 19 15 161 16 152 2 -4
-7 -1 -8 8 -2 21 13 458 13 467 0 10 -16 11 -738 1 -757 -9 -19 -59 -23 -59
-5 0 6 -4 4 -10 -4 -5 -8 -12 -11 -16 -7 -4 4 -14 1 -22 -6 -13 -10 -14 -9 -8
1 6 9 1 11 -18 8 -16 -3 -26 0 -26 7 0 8 -3 8 -8 2 -10 -14 -84 -16 -75 -2 4
6 1 7 -8 1 -22 -14 -80 -14 -72 -1 3 7 -4 3 -17 -8 -13 -11 -20 -14 -16 -7 6
9 1 11 -18 8 -16 -3 -26 0 -26 7 0 9 -2 9 -8 1 -9 -14 -43 -14 -61 0 -12 9
-13 8 -6 -3 6 -11 4 -13 -7 -8 -9 3 -21 0 -28 -6 -10 -9 -11 -9 -6 1 6 9 1 11
-18 8 -16 -3 -26 0 -26 7 0 8 -3 9 -8 1 -10 -14 -84 -15 -75 0 3 6 -4 2 -17
-9 -13 -11 -20 -14 -16 -7 6 9 1 11 -18 8 -16 -3 -26 0 -26 7 0 9 -2 9 -8 1
-9 -14 -43 -14 -61 0 -12 9 -13 8 -6 -3 6 -11 4 -13 -7 -8 -9 3 -21 0 -28 -6
-10 -9 -11 -9 -6 1 6 9 1 11 -18 8 -16 -3 -26 0 -26 7 0 8 -3 9 -8 1 -10 -14
-84 -15 -75 0 3 6 -4 2 -17 -9 -13 -11 -20 -14 -16 -7 6 9 1 11 -18 8 -16 -3
-26 0 -26 7 0 9 -2 9 -8 1 -9 -14 -43 -14 -61 0 -12 9 -13 8 -6 -3 6 -11 4
-13 -7 -8 -9 3 -21 0 -28 -6 -10 -9 -11 -9 -6 1 6 9 1 11 -18 8 -16 -3 -26 0
-26 7 0 8 -3 9 -8 1 -10 -14 -84 -15 -75 0 3 6 -4 2 -17 -9 -13 -11 -20 -14
-16 -7 6 9 1 11 -18 8 -16 -3 -26 0 -26 7 0 9 -2 9 -8 1 -9 -14 -43 -14 -61 0
-12 9 -13 8 -6 -3 6 -11 4 -13 -7 -8 -9 3 -21 0 -28 -6 -10 -9 -11 -9 -6 1 6
9 1 11 -18 8 -16 -3 -26 0 -26 7 0 8 -3 9 -8 1 -10 -14 -84 -15 -75 0 4 6 -1
5 -10 -3 -14 -11 -17 -11 -17 0 0 9 -3 10 -8 4 -10 -14 -65 -15 -74 -1 -5 7
-8 7 -8 0 0 -13 -89 -13 -109 0 -10 7 -12 6 -6 -4 6 -10 4 -12 -7 -7 -9 3 -21
0 -28 -6 -10 -9 -11 -9 -5 2 6 11 4 13 -8 8 -10 -4 -17 -1 -17 6 0 7 -3 8 -8
2 -10 -14 -104 -16 -95 -2 4 6 1 7 -8 1 -21 -13 -80 -14 -72 0 4 6 -1 5 -10
-3 -14 -11 -17 -11 -17 0 0 9 -3 10 -8 4 -10 -14 -65 -15 -74 -1 -5 7 -8 7 -8
1 0 -15 -100 -15 -100 -1 0 6 -4 4 -10 -4 -5 -8 -12 -11 -16 -7 -4 4 -14 1
-22 -6 -13 -10 -14 -9 -8 1 6 9 1 11 -18 8 -16 -3 -26 0 -26 7 0 8 -3 8 -8 2
-10 -14 -84 -16 -75 -2 4 6 1 7 -8 1 -22 -14 -80 -15 -72 -1 4 7 -1 6 -10 -2
-14 -11 -17 -11 -17 0 0 9 -3 10 -8 4 -10 -14 -65 -15 -74 -1 -5 7 -8 7 -8 0
0 -13 -89 -13 -109 0 -10 7 -12 6 -6 -4 6 -10 4 -12 -7 -7 -9 3 -21 0 -28 -6
-10 -9 -11 -9 -5 2 6 11 4 13 -8 8 -10 -4 -17 -1 -17 6 0 8 -3 8 -8 2 -4 -6
-22 -11 -41 -10 -25 0 -35 5 -37 18 -1 10 2 14 8 11 7 -5 8 -2 2 7 -12 19 -11
149 1 149 6 0 5 3 -1 8 -14 9 -13 144 1 154 6 5 6 8 -1 8 -14 0 -13 142 1 152
7 5 6 8 -1 8 -12 0 -12 219 1 239 5 10 4 12 -3 7 -11 -7 -17 6 -7 15 2 3 92 5
199 5 138 1 193 -2 189 -10z m4446 -3453 c56 -53 67 -62 96 -75 14 -6 25 -15
25 -21 0 -5 6 -7 14 -4 7 3 29 -5 48 -18 27 -18 38 -21 47 -12 8 8 14 8 19 2
10 -14 255 -15 264 -1 5 7 8 8 8 1 0 -7 26 -10 63 -10 34 1 68 -4 76 -9 12 -9
13 -8 6 3 -6 11 -3 13 19 7 18 -4 26 -2 26 6 0 9 3 10 8 2 9 -14 72 -14 72 0
0 7 3 8 8 1 10 -14 185 -14 194 -1 5 7 8 8 8 1 0 -7 26 -10 63 -10 34 1 68 -4
76 -9 12 -9 13 -8 6 3 -6 11 -3 13 19 7 18 -4 26 -2 26 6 0 9 3 10 8 2 9 -14
72 -14 72 0 0 7 3 8 8 1 10 -14 192 -15 192 -1 0 8 3 8 8 1 10 -14 305 -15
314 -1 5 8 8 8 8 1 0 -7 26 -10 63 -10 34 1 68 -4 76 -9 12 -9 13 -8 6 3 -6
11 -3 13 19 7 18 -4 26 -2 26 6 0 9 3 10 8 2 9 -14 72 -14 72 0 0 7 3 8 8 1
10 -14 185 -14 194 -1 5 7 8 8 8 1 0 -7 26 -10 63 -10 34 1 68 -4 76 -9 12 -9
13 -8 6 3 -6 11 -3 13 19 7 18 -4 26 -2 26 6 0 9 3 10 8 2 9 -14 72 -14 72 0
0 7 3 8 8 1 10 -14 192 -15 192 -1 0 8 3 8 8 1 10 -14 305 -15 314 -1 5 8 8 8
8 1 0 -7 26 -10 63 -10 34 1 68 -4 76 -9 12 -9 13 -8 6 3 -6 11 -3 13 19 7 18
-4 26 -2 26 6 0 9 3 10 8 2 9 -14 72 -14 72 0 0 7 3 8 8 1 10 -14 185 -14 194
-1 5 7 8 8 8 1 0 -7 26 -10 63 -10 34 1 68 -4 76 -9 12 -9 13 -8 6 3 -6 11 -3
13 19 7 18 -4 26 -2 26 6 0 9 3 10 8 2 9 -14 72 -14 72 0 0 7 3 8 8 1 10 -14
192 -15 192 -1 0 8 3 8 8 1 10 -14 305 -15 314 -1 5 8 8 8 8 1 0 -7 26 -10 63
-10 34 1 68 -4 76 -9 12 -9 13 -8 6 3 -6 11 -3 13 19 7 18 -4 26 -2 26 6 0 9
3 10 8 2 9 -14 72 -14 72 0 0 7 3 8 8 1 10 -14 185 -14 194 -1 5 7 8 8 8 1 0
-7 26 -10 63 -10 34 1 68 -4 76 -9 12 -9 13 -8 6 3 -6 11 -3 13 19 7 18 -4 26
-2 26 6 0 9 3 10 8 2 9 -14 72 -14 72 0 0 7 3 8 8 1 10 -14 192 -15 192 -1 0
7 3 8 8 1 10 -14 232 -15 232 -1 0 8 3 8 8 1 10 -14 145 -15 154 -1 5 7 8 7 8
1 0 -14 150 -15 150 -1 0 7 3 8 8 1 10 -14 145 -15 154 -1 5 7 8 7 8 1 0 -14
150 -15 150 -1 0 7 3 8 8 1 10 -14 145 -15 154 -1 5 7 8 7 8 1 0 -14 150 -15
150 -1 0 7 3 8 8 1 10 -14 145 -15 154 -1 5 8 8 7 8 -1 0 -6 8 -10 18 -8 9 1
25 -2 36 -7 14 -8 17 -7 11 2 -6 10 -1 11 19 6 18 -4 26 -2 26 6 0 9 3 10 8 2
9 -14 72 -14 72 0 0 7 3 8 8 1 10 -14 185 -14 194 -1 5 7 8 8 8 1 0 -7 26 -10
63 -10 34 1 68 -4 76 -9 12 -9 13 -8 6 3 -6 11 -3 13 19 7 18 -4 26 -2 26 6 0
9 3 10 8 2 9 -14 72 -14 72 0 0 7 3 8 8 1 10 -14 185 -14 194 -1 5 7 8 8 8 1
0 -7 26 -10 63 -10 34 1 68 -4 76 -9 12 -9 13 -8 6 3 -6 11 -3 13 19 7 18 -4
26 -2 26 6 0 9 3 10 8 2 9 -14 72 -14 72 0 0 7 3 8 8 1 10 -14 185 -14 194 -1
5 8 8 8 8 0 0 -6 25 -10 63 -9 l62 1 0 -76 c0 -41 4 -78 10 -82 7 -5 7 -8 0
-8 -11 0 -14 -165 -2 -176 3 -4 3 -12 -1 -18 -10 -17 -8 -110 3 -118 7 -5 7
-8 0 -8 -12 0 -13 -149 -2 -167 4 -6 3 -14 -1 -17 -5 -3 -8 -25 -7 -49 2 -34
-1 -46 -17 -56 -11 -7 -17 -8 -14 -3 7 11 -69 11 -80 0 -4 -4 -12 -4 -18 1
-17 14 -28 14 -37 -1 -6 -9 -9 -9 -9 -1 0 7 -10 10 -26 7 -17 -3 -23 -1 -19 7
5 8 2 8 -11 2 -11 -5 -28 -8 -39 -8 -11 0 -23 -4 -27 -10 -5 -6 -8 -5 -8 4 0
11 -3 11 -17 0 -9 -8 -14 -9 -10 -3 9 15 -85 14 -95 -1 -5 -7 -8 -7 -8 0 0 6
-11 12 -26 13 -17 1 -23 -2 -18 -10 5 -7 3 -8 -7 -2 -21 13 -80 14 -72 0 5 -8
3 -8 -8 0 -8 6 -24 10 -37 8 -14 -2 -21 0 -17 6 3 6 -1 7 -9 4 -9 -3 -13 -11
-9 -17 4 -6 1 -7 -8 -1 -21 13 -80 14 -72 0 5 -8 3 -8 -8 0 -8 6 -24 10 -37 8
-15 -3 -21 0 -16 7 4 8 1 8 -12 2 -11 -5 -28 -8 -39 -8 -11 0 -23 -4 -27 -10
-5 -6 -8 -5 -8 4 0 11 -3 11 -17 0 -9 -8 -14 -9 -10 -3 9 15 -65 14 -75 0 -5
-8 -8 -7 -8 1 0 7 -10 10 -26 7 -17 -3 -23 -1 -19 7 5 8 2 8 -11 2 -11 -5 -29
-8 -41 -7 -13 0 -23 -4 -23 -10 0 -8 -2 -8 -8 0 -9 14 -64 13 -74 -1 -5 -6 -8
-5 -8 4 0 11 -3 11 -17 0 -9 -8 -14 -9 -10 -3 9 15 -65 14 -75 0 -5 -8 -8 -7
-8 1 0 7 -10 10 -26 7 -17 -3 -23 -1 -19 7 5 8 2 8 -11 2 -11 -5 -28 -8 -39
-8 -11 0 -23 -4 -27 -10 -5 -6 -8 -6 -8 3 0 6 -5 12 -11 12 -5 0 -7 -5 -3 -12
5 -7 3 -8 -7 -2 -21 13 -80 14 -72 0 5 -8 3 -8 -8 0 -8 6 -24 10 -37 8 -14 -2
-21 0 -17 6 3 6 -1 7 -9 4 -9 -3 -13 -11 -9 -17 4 -6 1 -7 -8 -1 -21 13 -80
14 -72 0 5 -8 3 -8 -8 0 -8 6 -24 10 -37 8 -16 -3 -21 0 -16 8 4 7 -3 4 -16
-7 -13 -11 -21 -15 -17 -9 4 7 -11 11 -43 10 -28 0 -50 -4 -50 -10 0 -8 -3 -8
-8 -1 -9 14 -85 15 -94 1 -6 -8 -8 -8 -8 0 0 6 -11 12 -25 12 -14 0 -22 -5
-18 -11 4 -6 1 -7 -8 -1 -19 12 -52 12 -61 -1 -5 -6 -8 -6 -8 2 0 7 -10 10
-26 7 -17 -3 -23 -1 -19 7 5 8 2 8 -11 2 -11 -5 -28 -8 -39 -8 -11 0 -23 -4
-27 -10 -5 -6 -8 -5 -8 4 0 11 -3 11 -17 0 -9 -8 -14 -9 -10 -3 9 15 -85 14
-95 -1 -5 -7 -8 -7 -8 0 0 6 -11 12 -26 13 -17 1 -23 -2 -18 -10 5 -7 3 -8 -7
-2 -21 13 -80 14 -72 0 5 -8 3 -8 -8 0 -8 6 -24 10 -37 8 -14 -2 -21 0 -17 6
3 6 -1 7 -9 4 -9 -3 -13 -11 -9 -17 4 -6 1 -7 -8 -1 -21 13 -80 14 -72 0 5 -8
3 -8 -8 0 -8 6 -24 10 -37 8 -16 -3 -21 0 -16 8 4 7 -3 4 -16 -7 -13 -11 -21
-15 -17 -9 4 7 -11 11 -43 10 -28 0 -50 -4 -50 -10 0 -8 -3 -8 -8 -1 -9 14
-85 15 -94 1 -6 -8 -8 -8 -8 0 0 6 -11 12 -25 12 -14 0 -22 -5 -18 -11 4 -6 1
-7 -8 -1 -19 12 -52 12 -61 -1 -5 -6 -8 -6 -8 2 0 7 -10 10 -26 7 -17 -3 -23
-1 -19 7 5 8 2 8 -11 2 -11 -5 -28 -8 -39 -8 -11 0 -23 -4 -27 -10 -5 -6 -8
-5 -8 4 0 11 -3 11 -17 0 -9 -8 -14 -9 -10 -3 4 7 -10 11 -43 10 -28 0 -50 -4
-50 -10 0 -7 -3 -8 -8 -1 -11 16 -33 17 -50 3 -9 -7 -13 -8 -9 -2 4 7 -10 11
-43 10 -28 0 -50 -4 -50 -10 0 -8 -3 -8 -8 -1 -9 14 -85 15 -94 1 -6 -8 -8 -8
-8 0 0 6 -11 12 -25 12 -14 0 -22 -5 -18 -11 4 -6 1 -7 -8 -1 -19 12 -52 12
-61 -1 -5 -6 -8 -6 -8 2 0 7 -10 10 -26 7 -17 -3 -23 -1 -19 7 5 8 2 8 -11 2
-11 -5 -28 -8 -39 -8 -11 0 -23 -4 -27 -10 -5 -6 -8 -5 -8 4 0 11 -3 11 -17 0
-9 -8 -14 -9 -10 -3 4 7 -10 11 -43 10 -28 0 -50 -4 -50 -10 0 -7 -3 -8 -8 -1
-11 16 -33 17 -50 3 -9 -7 -13 -8 -9 -2 4 7 -10 11 -43 10 -28 0 -50 -4 -50
-10 0 -8 -3 -8 -8 -1 -9 14 -85 15 -94 1 -6 -8 -8 -8 -8 0 0 6 -11 12 -25 12
-14 0 -22 -5 -18 -11 4 -6 1 -7 -8 -1 -19 12 -52 12 -61 -1 -5 -6 -8 -6 -8 2
0 7 -10 10 -26 7 -17 -3 -23 -1 -19 7 5 8 2 8 -11 2 -11 -5 -28 -8 -39 -8 -11
0 -23 -4 -27 -10 -5 -6 -8 -5 -8 4 0 11 -3 11 -17 0 -9 -8 -14 -9 -10 -3 4 7
-10 11 -43 10 -28 0 -50 -4 -50 -10 0 -7 -3 -8 -8 -1 -11 16 -33 17 -50 3 -9
-7 -13 -8 -9 -2 4 7 -10 11 -43 10 -28 0 -50 -4 -50 -10 0 -8 -3 -8 -8 -1 -9
14 -85 15 -94 1 -6 -8 -8 -8 -8 0 0 6 -11 12 -25 12 -14 0 -22 -5 -18 -11 4
-6 1 -7 -8 -1 -19 12 -52 12 -61 -1 -5 -6 -8 -6 -8 2 0 7 -10 10 -26 7 -17 -3
-23 -1 -19 7 5 8 2 8 -11 2 -11 -5 -28 -8 -39 -8 -11 0 -23 -4 -27 -10 -5 -6
-8 -5 -8 4 0 11 -3 11 -17 0 -9 -8 -14 -9 -10 -3 4 7 -10 11 -43 10 -28 0 -50
-4 -50 -10 0 -7 -3 -8 -8 -1 -11 16 -33 17 -50 3 -9 -7 -13 -8 -9 -2 4 7 -10
11 -43 10 -28 0 -50 -4 -50 -10 0 -8 -3 -8 -8 -1 -9 14 -85 15 -94 1 -6 -8 -8
-8 -8 0 0 6 -11 12 -25 12 -14 0 -22 -5 -18 -11 4 -6 1 -7 -8 -1 -19 12 -52
12 -61 -1 -5 -6 -8 -6 -8 2 0 7 -10 10 -26 7 -17 -3 -23 -1 -19 7 5 8 2 8 -11
2 -11 -5 -28 -8 -39 -8 -11 0 -23 -4 -27 -10 -5 -6 -8 -5 -8 4 0 11 -3 11 -17
0 -9 -8 -14 -9 -10 -3 4 7 -10 11 -43 10 -28 0 -50 -4 -50 -10 0 -7 -3 -8 -8
-1 -11 16 -33 17 -50 3 -9 -7 -13 -8 -9 -2 4 7 -10 11 -43 10 -28 0 -50 -4
-50 -10 0 -8 -3 -8 -8 -1 -9 14 -85 15 -94 1 -6 -8 -8 -8 -8 0 0 6 -11 12 -25
12 -14 0 -22 -5 -18 -11 4 -6 1 -7 -8 -1 -19 12 -52 12 -61 -1 -5 -6 -8 -6 -8
2 0 7 -10 10 -26 7 -17 -3 -23 -1 -19 7 5 8 2 8 -11 2 -11 -5 -28 -8 -39 -8
-11 0 -23 -4 -27 -10 -5 -6 -8 -5 -8 4 0 11 -3 11 -17 0 -9 -8 -14 -9 -10 -3
4 7 -10 11 -43 10 -28 0 -50 -4 -50 -10 0 -7 -3 -8 -8 -1 -11 16 -33 17 -50 3
-9 -7 -13 -8 -9 -2 4 7 -10 11 -43 10 -28 0 -50 -4 -50 -10 0 -8 -3 -8 -8 -1
-9 14 -85 15 -94 1 -6 -8 -8 -8 -8 0 0 6 -11 12 -25 12 -14 0 -22 -5 -18 -11
4 -6 1 -7 -8 -1 -19 12 -52 12 -61 -1 -5 -6 -8 -6 -8 2 0 7 -10 10 -26 7 -17
-3 -23 -1 -19 7 5 8 2 8 -11 2 -11 -5 -28 -8 -39 -8 -11 0 -23 -4 -27 -10 -5
-6 -8 -5 -8 4 0 11 -3 11 -17 0 -9 -8 -14 -9 -10 -3 4 7 -10 11 -43 10 -28 0
-50 -4 -50 -10 0 -7 -3 -8 -8 -1 -11 16 -33 17 -50 3 -9 -7 -13 -8 -9 -2 4 7
-10 11 -43 10 -28 0 -50 -4 -50 -10 0 -8 -3 -8 -8 -1 -9 14 -85 15 -94 1 -6
-8 -8 -8 -8 0 0 6 -11 12 -25 12 -14 0 -22 -5 -18 -11 4 -6 1 -7 -8 -1 -19 12
-52 12 -61 -1 -5 -6 -8 -6 -8 2 0 7 -10 10 -26 7 -17 -3 -23 -1 -19 7 5 8 2 8
-11 2 -11 -5 -28 -8 -39 -8 -11 0 -23 -4 -27 -10 -5 -6 -8 -5 -8 4 0 11 -3 11
-17 0 -9 -8 -14 -9 -10 -3 9 15 -85 14 -95 -1 -5 -7 -8 -7 -8 0 0 6 -11 12
-26 13 -17 1 -23 -2 -18 -10 5 -7 3 -8 -7 -2 -21 13 -80 14 -72 0 5 -8 3 -8
-8 0 -8 6 -24 10 -37 8 -14 -2 -21 0 -17 6 3 6 -1 7 -9 4 -9 -3 -13 -11 -9
-17 4 -6 1 -7 -8 -1 -21 13 -80 14 -72 0 5 -8 3 -8 -8 0 -8 6 -24 10 -37 8
-16 -3 -21 0 -16 8 4 7 -3 4 -16 -7 -13 -11 -21 -15 -17 -9 4 7 -11 11 -43 10
-28 0 -50 -4 -50 -10 0 -8 -3 -8 -8 -1 -9 14 -85 15 -94 1 -6 -8 -8 -8 -8 0 0
6 -11 12 -25 12 -14 0 -22 -5 -18 -11 4 -6 1 -7 -8 -1 -19 12 -52 12 -61 -1
-5 -6 -8 -6 -8 2 0 7 -10 10 -26 7 -17 -3 -23 -1 -19 7 5 8 2 8 -11 2 -11 -5
-28 -8 -39 -8 -11 0 -23 -4 -27 -10 -5 -6 -8 -5 -8 4 0 11 -3 11 -17 0 -9 -8
-14 -9 -10 -3 9 15 -85 14 -95 -1 -5 -7 -8 -7 -8 0 0 6 -11 12 -26 13 -17 1
-23 -2 -18 -10 5 -7 3 -8 -7 -2 -21 13 -80 14 -72 0 5 -8 3 -8 -8 0 -8 6 -24
10 -37 8 -14 -2 -21 0 -17 6 3 6 -1 7 -9 4 -9 -3 -13 -11 -9 -17 4 -6 1 -7 -8
-1 -21 13 -80 14 -72 0 5 -8 3 -8 -8 0 -8 6 -24 10 -37 8 -15 -3 -21 0 -16 7
4 8 1 8 -12 2 -11 -5 -28 -8 -39 -8 -11 0 -23 -4 -27 -10 -5 -6 -8 -5 -8 4 0
11 -3 11 -17 0 -9 -8 -14 -9 -10 -3 9 15 -65 14 -75 0 -5 -8 -8 -7 -8 1 0 7
-10 10 -26 7 -17 -3 -23 -1 -19 7 5 8 2 8 -11 2 -11 -5 -29 -8 -41 -7 -13 0
-23 -4 -23 -10 0 -8 -2 -8 -8 0 -9 14 -64 13 -74 -1 -5 -6 -8 -5 -8 4 0 11 -3
11 -17 0 -9 -8 -14 -9 -10 -3 9 15 -65 14 -75 0 -5 -8 -8 -7 -8 1 0 7 -10 10
-26 7 -17 -3 -23 -1 -19 7 5 8 2 8 -11 2 -11 -5 -28 -8 -39 -8 -11 0 -23 -4
-27 -10 -5 -6 -8 -6 -8 3 0 6 -5 12 -11 12 -5 0 -7 -5 -3 -12 5 -7 3 -8 -7 -2
-21 13 -80 14 -72 0 5 -8 3 -8 -8 0 -8 6 -24 10 -37 8 -14 -2 -21 0 -17 6 3 6
-1 7 -9 4 -9 -3 -13 -11 -9 -17 4 -6 1 -7 -8 -1 -21 13 -80 14 -72 0 5 -8 3
-8 -8 0 -8 6 -24 10 -37 8 -16 -3 -21 0 -16 8 4 7 -3 4 -16 -7 -13 -11 -21
-15 -17 -9 4 7 -11 11 -43 10 -28 0 -50 -4 -50 -10 0 -8 -3 -8 -8 -1 -9 14
-85 15 -94 1 -6 -8 -8 -8 -8 0 0 6 -11 12 -25 12 -14 0 -22 -5 -18 -11 4 -6 1
-7 -8 -1 -19 12 -52 12 -61 -1 -5 -6 -8 -6 -8 2 0 7 -10 10 -26 7 -17 -3 -23
-1 -19 7 5 8 2 8 -11 2 -11 -5 -28 -8 -39 -8 -11 0 -23 -4 -27 -10 -5 -6 -8
-5 -8 4 0 11 -3 11 -17 0 -9 -8 -14 -9 -10 -3 9 15 -85 14 -95 -1 -5 -7 -8 -7
-8 0 0 6 -11 12 -26 13 -17 1 -23 -2 -18 -10 5 -7 3 -8 -7 -2 -21 13 -80 14
-72 0 5 -8 3 -8 -8 0 -8 6 -24 10 -37 8 -14 -2 -21 0 -17 6 3 6 -1 7 -9 4 -9
-3 -13 -11 -9 -17 4 -6 1 -7 -8 -1 -21 13 -80 14 -72 0 5 -8 3 -8 -8 0 -8 6
-24 10 -37 8 -15 -3 -21 0 -16 7 4 8 1 8 -12 2 -11 -5 -28 -8 -39 -8 -11 0
-23 -4 -27 -10 -5 -6 -8 -5 -8 4 0 11 -3 11 -17 0 -9 -8 -14 -9 -10 -3 9 15
-65 14 -75 0 -5 -8 -8 -7 -8 1 0 7 -10 10 -26 7 -17 -3 -23 -1 -19 7 5 8 2 8
-11 2 -11 -5 -29 -8 -41 -7 -13 0 -23 -4 -23 -10 0 -8 -2 -8 -8 0 -9 14 -64
13 -74 -1 -5 -6 -8 -5 -8 4 0 11 -3 11 -17 0 -9 -8 -14 -9 -10 -3 9 15 -65 14
-75 0 -5 -8 -8 -7 -8 1 0 7 -10 10 -26 7 -17 -3 -23 -1 -19 7 5 8 2 8 -11 2
-11 -5 -28 -8 -39 -8 -11 0 -23 -4 -27 -10 -5 -6 -8 -6 -8 3 0 6 -5 12 -11 12
-5 0 -7 -5 -3 -12 5 -7 3 -8 -7 -2 -21 13 -80 14 -72 0 5 -8 3 -8 -8 0 -8 6
-24 10 -37 8 -14 -2 -21 0 -17 6 3 6 -1 7 -9 4 -9 -3 -13 -11 -9 -17 4 -6 1
-7 -8 -1 -21 13 -80 14 -72 0 5 -8 3 -8 -8 0 -8 6 -24 10 -37 8 -16 -3 -21 0
-16 8 4 7 -3 4 -16 -7 -13 -11 -21 -15 -17 -9 4 7 -11 11 -43 10 -28 0 -50 -4
-50 -10 0 -8 -3 -8 -8 -1 -9 14 -85 15 -94 1 -6 -8 -8 -8 -8 0 0 6 -11 12 -25
12 -14 0 -22 -5 -18 -11 4 -6 1 -7 -8 -1 -19 12 -52 12 -61 -1 -5 -6 -8 -6 -8
2 0 7 -10 10 -26 7 -17 -3 -23 -1 -19 7 5 8 2 8 -11 2 -11 -5 -28 -8 -39 -8
-11 0 -23 -4 -27 -10 -5 -6 -8 -5 -8 4 0 11 -3 11 -17 0 -9 -8 -14 -9 -10 -3
9 15 -85 14 -95 -1 -5 -7 -8 -7 -8 0 0 6 -11 12 -26 13 -17 1 -23 -2 -18 -10
5 -7 3 -8 -7 -2 -21 13 -80 14 -72 0 5 -8 3 -8 -8 0 -8 6 -24 10 -37 8 -14 -2
-21 0 -17 6 3 6 -1 7 -9 4 -9 -3 -13 -11 -9 -17 4 -6 1 -7 -8 -1 -21 13 -80
14 -72 0 5 -8 3 -8 -8 0 -8 6 -24 10 -37 8 -17 -3 -21 0 -16 8 6 10 4 10 -7 2
-8 -5 -20 -9 -26 -8 -7 1 -17 2 -21 3 -4 0 -8 10 -9 21 -1 13 2 18 10 13 8 -4
8 -1 -1 9 -9 12 -10 18 -2 23 7 4 8 11 2 18 -11 14 -10 56 2 76 6 9 5 12 -1 8
-11 -7 -11 112 1 131 4 7 3 18 -2 25 -11 14 -10 56 2 76 6 9 5 12 -1 8 -11 -7
-11 112 1 131 4 7 3 18 -2 25 -11 14 -10 56 2 76 6 9 5 12 -1 8 -6 -4 -9 15
-8 50 l1 57 67 1 c42 1 67 -2 67 -9 0 -7 3 -8 8 -1 10 14 305 14 314 0 5 -6 8
-6 8 0 0 14 310 14 310 0 0 -7 3 -7 8 0 10 14 305 14 314 0 5 -6 8 -6 8 0 0
13 559 13 579 1 8 -6 12 -5 8 0 -7 12 453 11 472 -1 8 -5 12 -4 8 1 -7 12 453
11 472 -1 8 -5 12 -4 8 1 -7 12 453 11 472 -1 8 -5 12 -4 8 1 -7 12 453 11
472 -1 8 -5 12 -4 8 1 -3 6 68 9 179 9 116 0 184 -4 184 -10 0 -7 3 -6 8 0 10
14 305 14 314 0 5 -6 8 -6 8 0 0 7 54 10 145 10 80 -1 145 2 145 7 0 4 9 5 20
3 11 -2 20 1 20 7 0 6 3 8 6 5 10 -10 64 25 64 42 0 8 3 12 6 8 8 -7 27 11 43
41 6 12 19 22 29 22 13 0 14 2 3 9 -9 6 -10 11 -2 15 6 4 9 12 6 17 -12 19 6
8 44 -28z"/>
</g>
</svg>
